<mxfile host="app.diagrams.net" modified="2021-09-06T16:24:55.257Z" agent="5.0 (X11)" etag="5Czg1XprEDb4CC6udV6S" version="15.0.6" type="github">
  <diagram id="H34Jez10bvIvs-B8jjPw" name="Page-1">
    <mxGraphModel dx="866" dy="481" grid="1" gridSize="10" guides="1" tooltips="1" connect="1" arrows="1" fold="1" page="1" pageScale="1" pageWidth="850" pageHeight="1100" math="0" shadow="1">
      <root>
        <mxCell id="0" />
        <mxCell id="1" parent="0" />
        <mxCell id="t8B3U9x02naufP8xkdKy-29" style="edgeStyle=orthogonalEdgeStyle;rounded=0;orthogonalLoop=1;jettySize=auto;html=1;exitX=0.5;exitY=0.5;exitDx=0;exitDy=0;exitPerimeter=0;entryX=0.5;entryY=0;entryDx=0;entryDy=0;" edge="1" parent="1" source="t8B3U9x02naufP8xkdKy-1" target="t8B3U9x02naufP8xkdKy-11">
          <mxGeometry relative="1" as="geometry">
            <Array as="points">
              <mxPoint x="160" y="270" />
              <mxPoint x="160" y="220" />
              <mxPoint x="320" y="220" />
            </Array>
          </mxGeometry>
        </mxCell>
        <mxCell id="t8B3U9x02naufP8xkdKy-1" value="Actor" style="shape=umlActor;verticalLabelPosition=bottom;verticalAlign=top;html=1;outlineConnect=0;" vertex="1" parent="1">
          <mxGeometry x="100" y="240" width="30" height="60" as="geometry" />
        </mxCell>
        <mxCell id="t8B3U9x02naufP8xkdKy-2" value="upload file" style="swimlane;" vertex="1" parent="1">
          <mxGeometry x="170" y="170" width="200" height="200" as="geometry" />
        </mxCell>
        <mxCell id="t8B3U9x02naufP8xkdKy-10" value="file" style="shape=note;whiteSpace=wrap;html=1;backgroundOutline=1;darkOpacity=0.05;" vertex="1" parent="t8B3U9x02naufP8xkdKy-2">
          <mxGeometry x="20" y="30" width="80" height="100" as="geometry" />
        </mxCell>
        <mxCell id="t8B3U9x02naufP8xkdKy-30" style="edgeStyle=orthogonalEdgeStyle;rounded=0;orthogonalLoop=1;jettySize=auto;html=1;exitX=0.5;exitY=1;exitDx=0;exitDy=0;entryX=0.5;entryY=0;entryDx=0;entryDy=0;dashed=1;" edge="1" parent="t8B3U9x02naufP8xkdKy-2" source="t8B3U9x02naufP8xkdKy-11" target="t8B3U9x02naufP8xkdKy-21">
          <mxGeometry relative="1" as="geometry" />
        </mxCell>
        <mxCell id="t8B3U9x02naufP8xkdKy-11" value="Load" style="rounded=1;html=1;shadow=0;dashed=0;whiteSpace=wrap;fontSize=10;fillColor=#E6E6E6;align=center;strokeColor=#B3B3B3;fontColor=#333333;" vertex="1" parent="t8B3U9x02naufP8xkdKy-2">
          <mxGeometry x="120" y="100" width="60" height="16.88" as="geometry" />
        </mxCell>
        <mxCell id="t8B3U9x02naufP8xkdKy-14" value="********" style="strokeWidth=1;html=1;shadow=0;dashed=0;shape=mxgraph.ios.iTextInput;strokeColor=#444444;align=left;buttonText=;fontSize=8" vertex="1" parent="t8B3U9x02naufP8xkdKy-2">
          <mxGeometry x="20" y="150" width="83.5" height="15" as="geometry" />
        </mxCell>
        <mxCell id="t8B3U9x02naufP8xkdKy-21" value="encrypt" style="whiteSpace=wrap;html=1;align=center;" vertex="1" parent="t8B3U9x02naufP8xkdKy-2">
          <mxGeometry x="120" y="147.5" width="60" height="20" as="geometry" />
        </mxCell>
        <mxCell id="t8B3U9x02naufP8xkdKy-23" value="key" style="text;html=1;strokeColor=none;fillColor=none;align=center;verticalAlign=middle;whiteSpace=wrap;rounded=0;" vertex="1" parent="t8B3U9x02naufP8xkdKy-2">
          <mxGeometry x="41.75" y="147.5" width="40" height="20" as="geometry" />
        </mxCell>
        <mxCell id="t8B3U9x02naufP8xkdKy-3" value="encrypted page" style="swimlane;" vertex="1" parent="1">
          <mxGeometry x="470" y="170" width="200" height="200" as="geometry" />
        </mxCell>
        <mxCell id="t8B3U9x02naufP8xkdKy-28" value="-----BEGIN PGP MESSAGE-----&lt;br&gt;&lt;br&gt;hQIMA+wbfX75X4olARAAhjJE2e&lt;br&gt;V/jVzhbLLUUy9OSb4cs0diF/Z4sB&lt;br&gt;2cpwf+n1ogtGUG9Vm0g1uehqfS&lt;br&gt;&lt;div&gt;ZOqdGs2yCKXA5zb/ORNoeL/FT1&lt;/div&gt;&lt;div&gt;/rsv30GwsmDMKAxxyN2e+2u3d&lt;br&gt;&lt;/div&gt;RgEXnY8ylWZTifwaSdl3uRRRMo&lt;br&gt;&lt;div&gt;Wiougz7tOUNnMZVe9pAgs0KLlU&lt;/div&gt;&lt;div&gt;&lt;br&gt;&lt;/div&gt;-----END PGP MESSAGE-----" style="text;html=1;strokeColor=none;fillColor=none;spacing=5;spacingTop=-20;whiteSpace=wrap;overflow=hidden;rounded=0;" vertex="1" parent="t8B3U9x02naufP8xkdKy-3">
          <mxGeometry x="5" y="40" width="190" height="150" as="geometry" />
        </mxCell>
        <mxCell id="t8B3U9x02naufP8xkdKy-8" value="" style="html=1;shadow=0;dashed=0;align=center;verticalAlign=middle;shape=mxgraph.arrows2.arrow;dy=0.67;dx=20;notch=0;" vertex="1" parent="1">
          <mxGeometry x="390" y="285" width="60" height="30" as="geometry" />
        </mxCell>
        <mxCell id="t8B3U9x02naufP8xkdKy-15" value="" style="shape=image;html=1;verticalAlign=top;verticalLabelPosition=bottom;labelBackgroundColor=#ffffff;imageAspect=0;aspect=fixed;image=https://cdn4.iconfinder.com/data/icons/basic-ui-2-line/32/key-password-main-keys-privilege-128.png;rotation=50;" vertex="1" parent="1">
          <mxGeometry x="405" y="230" width="40" height="40" as="geometry" />
        </mxCell>
        <mxCell id="t8B3U9x02naufP8xkdKy-4" value="IPFS" style="shape=cylinder3;whiteSpace=wrap;html=1;boundedLbl=1;backgroundOutline=1;size=15;" vertex="1" parent="1">
          <mxGeometry x="720" y="290" width="70" height="80" as="geometry" />
        </mxCell>
        <mxCell id="t8B3U9x02naufP8xkdKy-19" value="" style="html=1;shadow=0;dashed=0;align=center;verticalAlign=middle;shape=mxgraph.arrows2.bendArrow;dy=15;dx=38;notch=0;arrowHead=55;rounded=1;rotation=90;" vertex="1" parent="1">
          <mxGeometry x="680" y="210" width="100" height="100" as="geometry" />
        </mxCell>
      </root>
    </mxGraphModel>
  </diagram>
</mxfile>
